<?xml version="1.0" encoding="UTF-8" standalone="no"?>
<!DOCTYPE svg PUBLIC "-//W3C//DTD SVG 1.1//EN" "http://www.w3.org/Graphics/SVG/1.1/DTD/svg11.dtd">
<svg width="100%" height="100%" viewBox="0 0 463 500" version="1.1" xmlns="http://www.w3.org/2000/svg" xmlns:xlink="http://www.w3.org/1999/xlink" xml:space="preserve" xmlns:serif="http://www.serif.com/" style="fill-rule:evenodd;clip-rule:evenodd;stroke-linejoin:round;stroke-miterlimit:2;">
    <g id="Stag" transform="matrix(1,0,0,1,-189.573,-47.64)">
        <rect x="189.573" y="47.64" width="462.744" height="500" style="fill:none;"/>
        <clipPath id="_clip1">
            <rect x="189.573" y="47.64" width="462.744" height="500"/>
        </clipPath>
        <g clip-path="url(#_clip1)">
            <g id="Base-Stag" serif:id="Base Stag" transform="matrix(1.63459,0,0,1.63459,-295.27,-205.189)">
                <path d="M413.867,262.719L413.867,262.719L413.867,262.719L423.581,269.257C428.731,272.723 455.732,275.665 451.568,305.875L478.04,337.982L476.2,344.1L510.375,385.548L510.375,385.548L503.672,407.828L465.829,396.443L468.896,390.06L444.691,378.435C430.452,408.077 420.536,435.298 400.351,460.953L410.073,412.579L362.648,437.24L395.609,400.486L296.965,446.25L374.742,385.547L336.506,385.547C356.228,374.422 382.49,354.584 415.29,326.03L367.088,330.028L348.652,333.608L423.352,305.875C419.641,295.88 412.717,293.854 417.331,273.907L413.867,262.719L413.866,262.719L413.867,262.719Z" style="fill:rgb(0,102,204);fill-rule:nonzero;"/>
            </g>
            <g id="Neck-Shadow" serif:id="Neck Shadow" transform="matrix(1.63459,0,0,1.63459,364.564,364.662)">
                <path d="M-0.374,97.682C10.792,73.507 23.396,34.65 21.342,29.577C14.504,12.694 17.053,-2.097 28.219,-14.054C29.488,-15.414 31.218,-14.375 29.963,-12.655C22.55,-2.496 30.263,20.178 41.887,25.762L70.6,39.555L67.828,45.323L97.307,54.191L101.939,38.794L106.706,36.928L100.003,59.208L62.16,47.823L65.227,41.44L41.022,29.815C26.783,59.457 16.867,86.678 -3.318,112.333L-0.374,97.682Z" style="fill:rgb(0,51,204);fill-rule:nonzero;"/>
            </g>
            <g id="Ear-Shadow" serif:id="Ear Shadow" transform="matrix(1.63459,0,0,1.63459,396.737,269.581)">
                <path d="M0,15.423C-3.711,5.428 -10.635,3.402 -6.021,-16.545L-9.485,-27.733L-2.609,-18.485C-1.679,-13.093 0.886,-9.333 0.948,-3.072L-1.424,-3.547C2.77,10.531 8.936,20.158 17.074,25.333L-74.7,43.156L0,15.423Z" style="fill:rgb(0,51,204);fill-rule:nonzero;"/>
            </g>
            <g id="Nose-Highlight" serif:id="Nose Highlight" transform="matrix(1.63459,0,0,1.63459,392.472,415.995)">
                <path d="M0,-108.058C3.704,-103.077 32.108,-101.525 27.944,-71.315L52.822,-41.142L50.981,-35.025L78.151,-2.072L72.22,2.818L75.105,6.318L79.072,7.409L80.119,9.248L89.633,5.523L55.458,-35.925L57.298,-42.043L30.826,-74.15C34.99,-104.36 7.989,-107.302 2.839,-110.768L-6.876,-117.306L0,-108.058Z" style="fill:rgb(153,204,255);fill-rule:nonzero;"/>
            </g>
            <g id="Ear-Highlight" serif:id="Ear Highlight" transform="matrix(1.63459,0,0,1.63459,399.061,296.34)">
                <path d="M0,-30.588C13.438,-17.104 17.661,-16.575 17.547,0L10.907,-15.175L6.876,-19.206C6.21,-15.242 6.641,-14.283 1.186,-14.701C4.748,-19.05 5.34,-19.04 0,-30.588" style="fill:rgb(153,204,255);fill-rule:nonzero;"/>
            </g>
            <g id="Eye-Base" serif:id="Eye Base" transform="matrix(-0.781517,-1.43566,-1.43566,0.781517,452.62,379.677)">
                <path d="M32.088,-8.508L41.841,-8.508L-14.273,-19.358C-14.456,-18.418 -2.14,-15.209 5.484,-13.735C12.162,-4.73 22.602,-3.094 32.088,-8.508" style="fill:rgb(0,51,204);fill-rule:nonzero;"/>
            </g>
            <g id="Eye-Inner-Black" serif:id="Eye Inner Black" transform="matrix(-1.03981,-1.26122,-1.26122,1.03981,458.253,336.362)">
                <path d="M-9.531,4.495L2.12,4.495C-1.977,7.518 -5.86,7.517 -9.531,4.495" style="fill-rule:nonzero;"/>
            </g>
            <g id="Eye-Outer-Black" serif:id="Eye Outer Black" transform="matrix(1.63459,0,0,1.63459,446.736,352.185)">
                <path d="M0,-10.452L-2.331,-13.279C-1.616,-4.029 2.243,1.339 9.247,2.827C2.547,-0.484 -0.535,-4.911 0,-10.452" style="fill-rule:nonzero;"/>
            </g>
            <g id="Eye-Middle" serif:id="Eye Middle" transform="matrix(1.63459,0,0,1.63459,461.099,340.055)">
                <path d="M0,6.917C-3.759,6.977 -5.66,4.67 -5.704,-0.001L0,6.917Z" style="fill:rgb(0,102,204);fill-rule:nonzero;"/>
            </g>
            <g id="Eye-Top-Highlight" serif:id="Eye Top Highlight" transform="matrix(1.63459,0,0,1.63459,468.487,340.95)">
                <path d="M0,9.848C1.599,3.003 -3.102,-2.514 -11.256,-3.804L0,9.848Z" style="fill:rgb(153,204,255);fill-rule:nonzero;"/>
            </g>
            <g id="Horns" transform="matrix(1.63459,0,0,1.63459,-590.174,-205.189)">
                <path d="M746.514,247.306C746.505,274.631 700.114,324.497 661.003,319.744C658.805,319.477 656.933,320.055 658.569,322.039C682.881,351.526 694.547,348.259 732.76,312.751C731.813,321.453 720.451,334.497 699.326,350.607C696.119,353.054 696.789,354.316 699.326,354.657C719.751,357.401 728.452,352.443 746.04,340.257C736.683,365.518 696.718,384.389 658.456,337.981L631.984,305.875C634.755,285.767 623.72,277.739 614.51,273.597C586.681,219.137 658.178,155.066 731.101,155.066C731.101,160.813 654.915,177.015 638.149,211.738C635.855,216.49 637.489,215.286 644.315,213.872C659.935,210.637 666.398,209.944 682.369,214.141C686.232,215.156 688.454,214.568 690.934,213.664C711.71,206.095 731.127,197.419 741.207,196.762C749.236,196.239 750.759,200.506 746.751,202.016C727.22,209.377 719.393,215.771 708.268,221.804C706.356,222.84 707.244,224.668 711.893,225.965C760.854,239.633 773.604,249.006 746.514,247.306ZM744.853,247.069C708.343,243.406 620.52,194.748 630.711,259.873C630.94,261.342 632.163,263.621 634.118,261.533C644.597,250.349 649.107,244.224 651.665,244.224C651.665,268.231 629.329,270.075 636.667,290.17C637.114,291.394 638.031,292.566 639.29,290.903C643.217,285.712 647.509,281.076 650.243,273.153C651.831,289.228 649.874,291.304 641.477,302.81C640.275,304.457 640.181,305.586 643.142,306.235C694.105,317.386 744.853,247.069 744.853,247.069Z" style="fill:rgb(0,51,102);fill-rule:nonzero;"/>
            </g>
        </g>
    </g>
</svg>
